<svg width="19" height="16" viewBox="0 0 19 16" fill="none" xmlns="http://www.w3.org/2000/svg">
<path d="M13.4916 0.142822C12.6745 0.142965 11.8722 0.360578 11.167 0.773317C10.4618 1.18606 9.87923 1.77905 9.47901 2.49139C9.07869 1.77888 8.4959 1.18578 7.79051 0.773028C7.08512 0.360279 6.28257 0.142762 5.46529 0.142822C4.21361 0.210423 3.03617 0.757977 2.17791 1.67158C1.31965 2.58519 0.846645 3.7945 0.857293 5.04796C0.857293 11.44 9.47901 15.8994 9.47901 15.8994C9.47901 15.8994 18.1007 11.4422 18.1007 5.04796C18.1114 3.79431 17.6382 2.58484 16.7797 1.6712C15.9212 0.757569 14.7435 0.210139 13.4916 0.142822V0.142822Z" fill="#FE724C"/>
</svg>
