<svg width="19" height="16" viewBox="0 0 19 16" fill="none" xmlns="http://www.w3.org/2000/svg">
<path d="M9.60188 15.2611C9.557 15.2867 9.51597 15.3098 9.47905 15.3304C9.44212 15.3098 9.40108 15.2867 9.35619 15.2611C9.12698 15.1304 8.79765 14.9356 8.40162 14.6819C7.60854 14.1737 6.55318 13.432 5.50012 12.4969C3.37175 10.6071 1.35728 8.02111 1.3573 5.04809L1.35726 5.04384C1.34771 3.91905 1.77216 2.83387 2.54232 2.01405C3.30939 1.1975 4.3606 0.706814 5.47877 0.642965C6.20263 0.645284 6.91308 0.839047 7.53798 1.2047C8.16676 1.57262 8.68625 2.1013 9.04308 2.73643L9.479 3.5123L9.91491 2.73643C10.2717 2.10145 10.791 1.57287 11.4196 1.20496C12.0443 0.839315 12.7545 0.645467 13.4782 0.642969C14.5965 0.706565 15.648 1.19715 16.4153 2.01371C17.1857 2.83356 17.6103 3.91888 17.6007 5.04385H17.6007V5.04809C17.6007 8.02228 15.5862 10.6083 13.4579 12.4977C12.4049 13.4326 11.3495 14.1741 10.5564 14.6821C10.1604 14.9358 9.83109 15.1305 9.60188 15.2611Z" stroke="#FE724C"/>
</svg>
