<svg width="16" height="16" viewBox="0 0 16 16" fill="none" xmlns="http://www.w3.org/2000/svg">
<g id="heart">
<path id="Vector" d="M13.4724 3.43065C13.1562 3.11433 12.7808 2.86339 12.3676 2.69219C11.9544 2.52098 11.5115 2.43286 11.0643 2.43286C10.617 2.43286 10.1742 2.52098 9.76098 2.69219C9.3478 2.86339 8.97239 3.11433 8.65621 3.43065L8.00002 4.08684L7.34383 3.43065C6.70516 2.79199 5.83895 2.43319 4.93574 2.43319C4.03253 2.43319 3.16631 2.79199 2.52765 3.43065C1.88898 4.06932 1.53018 4.93553 1.53018 5.83874C1.53018 6.74195 1.88898 7.60816 2.52765 8.24683L3.18383 8.90302L8.00002 13.7192L12.8162 8.90302L13.4724 8.24683C13.7887 7.93065 14.0397 7.55524 14.2109 7.14205C14.3821 6.72886 14.4702 6.28599 14.4702 5.83874C14.4702 5.39149 14.3821 4.94862 14.2109 4.53543C14.0397 4.12224 13.7887 3.74684 13.4724 3.43065Z" fill="#FE724C"/>
</g>
</svg>
