<svg width="16" height="16" viewBox="0 0 16 16" fill="none" xmlns="http://www.w3.org/2000/svg">
<g id="ph:star-fill">
<path id="Vector" d="M14.6562 7.14887L11.8375 9.60887L12.6819 13.2714C12.7266 13.4628 12.7138 13.6632 12.6452 13.8475C12.5766 14.0317 12.4552 14.1917 12.2962 14.3073C12.1372 14.423 11.9477 14.4892 11.7513 14.4977C11.5548 14.5062 11.3603 14.4566 11.1919 14.3551L7.9975 12.4176L4.81 14.3551C4.6416 14.4566 4.44703 14.5062 4.2506 14.4977C4.05418 14.4892 3.86462 14.423 3.70562 14.3073C3.54662 14.1917 3.42524 14.0317 3.35665 13.8475C3.28806 13.6632 3.27531 13.4628 3.32 13.2714L4.16312 9.61262L1.34375 7.14887C1.19463 7.02026 1.0868 6.85048 1.03378 6.66084C0.980764 6.47119 0.98492 6.27011 1.04573 6.08281C1.10654 5.89552 1.22129 5.73034 1.37559 5.608C1.5299 5.48567 1.71689 5.41161 1.91312 5.39512L5.62937 5.07324L7.08 1.61324C7.15575 1.43169 7.28353 1.27661 7.44724 1.16753C7.61095 1.05845 7.80327 1.00024 8 1.00024C8.19672 1.00024 8.38904 1.05845 8.55275 1.16753C8.71647 1.27661 8.84424 1.43169 8.92 1.61324L10.375 5.07324L14.09 5.39512C14.2862 5.41161 14.4732 5.48567 14.6275 5.608C14.7818 5.73034 14.8966 5.89552 14.9574 6.08281C15.0182 6.27011 15.0224 6.47119 14.9693 6.66084C14.9163 6.85048 14.8085 7.02026 14.6594 7.14887H14.6562Z" fill="#FFC529"/>
</g>
</svg>
